<?xml version="1.0" encoding="utf-8"?>
<!-- Generator: Adobe Illustrator 28.1.0, SVG Export Plug-In . SVG Version: 6.00 Build 0)  -->
<svg version="1.1" id="Layer_1" xmlns="http://www.w3.org/2000/svg" xmlns:xlink="http://www.w3.org/1999/xlink" x="0px" y="0px"
	 viewBox="0 0 512 512" style="enable-background:new 0 0 512 512;" xml:space="preserve">
<style type="text/css">
	.st0{fill:#FFFFFF;}
</style>
<path class="st0" d="M256,234.7c-23.5,0-42.7,19.1-42.7,42.7c0,2.7,0.3,5.3,0.7,7.8L91.5,342.3l9,19.3l122.6-57.2
	c7.8,9.5,19.7,15.5,32.9,15.5c23.5,0,42.7-19.1,42.7-42.7C298.6,253.8,279.5,234.7,256,234.7L256,234.7z M256,298.7
	c-11.8,0-21.3-9.6-21.3-21.3S244.2,256,256,256c11.8,0,21.3,9.6,21.3,21.3S267.8,298.7,256,298.7z M512,277.3
	c0,83.1-40.8,161.4-109.1,209.5l-6.8,4.8l-57.9-50.1l14-16.1l45.2,39.1c58.6-44.3,93.3-113.7,93.3-187.1
	c0-129.4-105.3-234.7-234.7-234.7S21.3,147.9,21.3,277.3c0,73.4,34.7,142.8,93.3,187.1l45.2-39.1l14,16.1l-57.9,50.1l-6.8-4.8
	C40.8,438.8,0,360.5,0,277.3c0-141.2,114.8-256,256-256S512,136.2,512,277.3z"/>
</svg>
