<?xml version="1.0" encoding="UTF-8"?>
<svg xmlns="http://www.w3.org/2000/svg" xmlns:xlink="http://www.w3.org/1999/xlink" viewBox="0 0 471.55 80.6">
  <defs>
    <style>
      .cls-1 {
        opacity: .85;
      }

      .cls-2 {
        fill: url(#linear-gradient);
      }

      .cls-2, .cls-3, .cls-4, .cls-5 {
        stroke-width: 0px;
      }

      .cls-3 {
        fill: url(#radial-gradient);
        opacity: .4;
      }

      .cls-3, .cls-6 {
        mix-blend-mode: screen;
      }

      .cls-7 {
        isolation: isolate;
      }

      .cls-4 {
        fill: #2c4395;
      }

      .cls-5 {
        fill: url(#radial-gradient-2);
      }
    </style>
    <linearGradient id="linear-gradient" x1="-220.98" y1="37.21" x2="-510.8" y2="37.21" gradientTransform="translate(74.42 432.45) rotate(90)" gradientUnits="userSpaceOnUse">
      <stop offset="0" stop-color="#e5252c"/>
      <stop offset=".22" stop-color="#e6358b"/>
      <stop offset=".27" stop-color="#e0388d"/>
      <stop offset=".34" stop-color="#cf4193"/>
      <stop offset=".43" stop-color="#b3509e"/>
      <stop offset=".51" stop-color="#8c65ad"/>
      <stop offset=".61" stop-color="#5a80c0"/>
      <stop offset=".71" stop-color="#1ea0d7"/>
      <stop offset=".74" stop-color="#0caade"/>
      <stop offset="1" stop-color="#ffd405"/>
    </linearGradient>
    <radialGradient id="radial-gradient" cx="24.97" cy="71.19" fx="24.97" fy="71.19" r="47.2" gradientUnits="userSpaceOnUse">
      <stop offset=".31" stop-color="#fff"/>
      <stop offset="1" stop-color="#010101"/>
    </radialGradient>
    <radialGradient id="radial-gradient-2" cx="-464.3" cy="-5.34" fx="-464.3" fy="-5.34" r="152.53" gradientTransform="translate(74.42 432.45) rotate(90)" gradientUnits="userSpaceOnUse">
      <stop offset="0" stop-color="#fff"/>
      <stop offset=".23" stop-color="#b1b1b1"/>
      <stop offset=".57" stop-color="#e5e7e8"/>
      <stop offset=".92" stop-color="#9fa1a4"/>
    </radialGradient>
  </defs>
  <g class="cls-7">
    <g id="Calque_1" data-name="Calque 1">
      <g>
        <g>
          <g class="cls-6">
            <path class="cls-4" d="M95.17,50.59V2.58h27.71v4.09h-23v16.7h20.51v4.02h-20.51v19.12h24.8v4.09h-29.51Z"/>
            <path class="cls-4" d="M125.18,51.09h-30.51V2.08h28.71v5.09h-23v15.7h20.51v5.02h-20.51v18.12h24.8v5.09ZM95.67,50.09h28.51v-3.09h-24.8v-20.12h20.51v-3.02h-20.51V6.17h23v-3.09h-26.71v47.01Z"/>
          </g>
          <g class="cls-6">
            <path class="cls-4" d="M167.14,50.59c-.92-2.36-1.76-4.62-2.53-6.8-.77-2.18-1.5-4.3-2.21-6.36h-23.45c-.8,2.07-1.59,4.2-2.35,6.38-.77,2.18-1.58,4.44-2.43,6.78h-4.92c1.82-5,3.54-9.65,5.17-13.97,1.62-4.32,3.21-8.4,4.77-12.25,1.56-3.85,3.11-7.55,4.64-11.1,1.54-3.55,3.15-7.11,4.85-10.68h4.15c1.69,3.55,3.3,7.11,4.82,10.67,1.52,3.56,3.06,7.26,4.63,11.11s3.15,7.94,4.76,12.26c1.61,4.32,3.37,8.98,5.3,13.97h-5.2ZM150.62,7.98c-1.74,3.99-3.43,8.03-5.08,12.14-1.65,4.11-3.35,8.53-5.11,13.28h20.49c-1.77-4.76-3.5-9.19-5.18-13.3-1.68-4.11-3.39-8.15-5.12-12.12Z"/>
            <path class="cls-4" d="M173.07,51.09h-6.27l-.12-.32c-.91-2.33-1.76-4.62-2.53-6.82-.73-2.06-1.43-4.07-2.09-6.03h-22.75c-.76,1.98-1.51,4.01-2.22,6.04-.77,2.18-1.58,4.44-2.44,6.79l-.12.33h-5.98l.24-.67c1.81-4.96,3.55-9.66,5.17-13.98,1.61-4.28,3.21-8.4,4.78-12.26,1.53-3.79,3.1-7.53,4.65-11.11,1.54-3.55,3.17-7.15,4.85-10.7l.14-.29h4.79l.14.29c1.69,3.56,3.32,7.15,4.83,10.69,1.52,3.55,3.07,7.29,4.63,11.12,1.56,3.85,3.17,7.98,4.76,12.27,1.58,4.24,3.36,8.94,5.3,13.96l.26.68ZM167.49,50.09h4.13c-1.84-4.77-3.54-9.24-5.04-13.3-1.59-4.29-3.19-8.4-4.75-12.24-1.55-3.82-3.11-7.56-4.62-11.1-1.46-3.43-3.04-6.91-4.68-10.36h-3.52c-1.63,3.44-3.21,6.93-4.7,10.38-1.55,3.58-3.11,7.31-4.64,11.09-1.56,3.85-3.16,7.97-4.77,12.24-1.55,4.12-3.2,8.59-4.92,13.29h3.85c.81-2.23,1.58-4.38,2.31-6.45.76-2.16,1.55-4.31,2.36-6.39l.12-.32h24.15l.12.34c.7,2.06,1.43,4.18,2.2,6.35.74,2.08,1.54,4.26,2.4,6.47ZM161.65,33.91h-21.93l.25-.67c1.76-4.73,3.48-9.21,5.12-13.3,1.65-4.11,3.36-8.19,5.08-12.15l.46-1.05.46,1.05c1.73,3.97,3.46,8.05,5.13,12.13,1.67,4.09,3.42,8.57,5.18,13.32l.25.67ZM141.15,32.91h19.05c-1.68-4.48-3.33-8.72-4.92-12.61-1.52-3.72-3.08-7.43-4.66-11.06-1.57,3.62-3.12,7.34-4.61,11.07-1.56,3.89-3.19,8.12-4.86,12.6Z"/>
          </g>
          <g class="cls-6">
            <path class="cls-4" d="M190.63,47.54c3.74,0,6.65-.68,8.73-2.05,2.08-1.37,3.12-3.58,3.12-6.63,0-1.76-.34-3.23-1-4.41-.67-1.18-1.56-2.18-2.67-2.99-1.11-.81-2.38-1.5-3.81-2.08-1.43-.57-2.93-1.18-4.5-1.83-1.99-.78-3.76-1.58-5.33-2.41-1.57-.83-2.91-1.76-4.02-2.8s-1.95-2.23-2.53-3.57c-.58-1.34-.87-2.91-.87-4.71,0-4.11,1.36-7.23,4.09-9.35,2.72-2.12,6.51-3.19,11.36-3.19,1.29,0,2.56.09,3.81.28,1.25.19,2.41.43,3.5.73,1.08.3,2.08.64,2.98,1,.9.37,1.65.76,2.25,1.18l-1.66,3.95c-1.34-.92-2.97-1.66-4.88-2.22-1.92-.55-3.98-.83-6.2-.83-1.52,0-2.92.15-4.19.45-1.27.3-2.37.79-3.29,1.45-.92.67-1.65,1.51-2.18,2.53-.53,1.02-.8,2.24-.8,3.67s.28,2.73.83,3.74c.55,1.02,1.33,1.89,2.32,2.63.99.74,2.16,1.41,3.5,2.01,1.34.6,2.79,1.22,4.36,1.87,1.89.79,3.68,1.57,5.37,2.36,1.69.79,3.15,1.71,4.4,2.77,1.25,1.06,2.24,2.36,2.98,3.88.74,1.52,1.11,3.39,1.11,5.61,0,4.34-1.51,7.6-4.54,9.77-3.03,2.17-7.12,3.26-12.3,3.26-1.85,0-3.53-.12-5.06-.35-1.52-.23-2.89-.52-4.09-.87-1.2-.35-2.22-.7-3.05-1.07-.83-.37-1.48-.69-1.94-.97l1.52-4.09c.46.28,1.08.6,1.87.97.78.37,1.71.73,2.77,1.07,1.06.35,2.26.64,3.6.87,1.34.23,2.82.35,4.43.35Z"/>
            <path class="cls-4" d="M190.56,52.12c-1.86,0-3.59-.12-5.13-.35-1.55-.24-2.94-.53-4.15-.88-1.22-.35-2.27-.72-3.11-1.1-.86-.38-1.51-.71-1.99-1l-.36-.21,1.88-5.04.52.31c.45.27,1.06.59,1.83.95.76.36,1.67.71,2.71,1.05,1.04.34,2.22.62,3.53.85,1.3.23,2.76.34,4.35.34,3.62,0,6.47-.66,8.45-1.97,1.95-1.28,2.89-3.31,2.89-6.21,0-1.66-.32-3.06-.94-4.16-.63-1.11-1.48-2.06-2.53-2.83-1.07-.78-2.32-1.46-3.7-2.02-1.43-.57-2.94-1.18-4.51-1.83-1.99-.78-3.8-1.6-5.38-2.43-1.6-.84-2.99-1.81-4.13-2.88-1.16-1.08-2.05-2.34-2.65-3.73-.6-1.39-.91-3.05-.91-4.91,0-4.25,1.44-7.53,4.28-9.75,2.8-2.18,6.73-3.29,11.67-3.29,1.31,0,2.61.09,3.88.28,1.26.19,2.46.44,3.56.74,1.1.31,2.12.65,3.04,1.02.93.38,1.72.8,2.35,1.23l.33.23-2.06,4.89-.51-.35c-1.29-.89-2.88-1.61-4.74-2.15-1.86-.54-3.9-.81-6.06-.81-1.48,0-2.85.15-4.08.44-1.2.28-2.25.75-3.11,1.37-.86.62-1.54,1.41-2.03,2.35-.49.94-.74,2.1-.74,3.44s.26,2.57.77,3.5c.52.95,1.25,1.78,2.18,2.47.96.72,2.11,1.37,3.4,1.95,1.33.6,2.8,1.23,4.35,1.86,1.9.79,3.71,1.58,5.39,2.36,1.72.8,3.24,1.76,4.51,2.84,1.29,1.1,2.34,2.46,3.1,4.04.77,1.59,1.16,3.55,1.16,5.83,0,4.49-1.6,7.91-4.75,10.17-3.1,2.22-7.33,3.35-12.59,3.35ZM177.05,48.14c.4.22.91.46,1.53.74.81.36,1.81.71,2.98,1.05,1.17.34,2.52.62,4.02.85,1.49.23,3.17.34,4.98.34,5.04,0,9.08-1.06,12-3.16,2.87-2.06,4.33-5.21,4.33-9.36,0-2.13-.36-3.94-1.06-5.39-.7-1.45-1.67-2.7-2.85-3.72-1.21-1.03-2.65-1.93-4.29-2.7-1.67-.78-3.47-1.56-5.35-2.35-1.56-.64-3.03-1.27-4.38-1.88-1.36-.61-2.57-1.31-3.59-2.06-1.05-.78-1.87-1.72-2.46-2.79-.59-1.08-.89-2.42-.89-3.98s.29-2.82.85-3.9c.56-1.08,1.35-1.99,2.33-2.7.97-.71,2.14-1.22,3.47-1.54,1.3-.31,2.75-.46,4.31-.46,2.25,0,4.39.29,6.34.85,1.72.5,3.24,1.15,4.52,1.95l1.27-3.01c-.51-.31-1.12-.62-1.82-.91-.87-.36-1.86-.69-2.92-.98-1.06-.29-2.22-.53-3.44-.71-1.22-.18-2.48-.27-3.74-.27-4.71,0-8.43,1.04-11.05,3.08-2.58,2.01-3.89,5.03-3.89,8.96,0,1.73.28,3.24.83,4.51.55,1.27,1.36,2.41,2.41,3.4,1.07,1.01,2.39,1.92,3.91,2.72,1.55.81,3.32,1.62,5.28,2.39,1.58.65,3.08,1.25,4.51,1.83,1.46.59,2.78,1.3,3.92,2.14,1.16.85,2.1,1.9,2.81,3.14.71,1.25,1.07,2.82,1.07,4.66,0,3.22-1.12,5.59-3.34,7.05-2.15,1.41-5.18,2.13-9,2.13-1.64,0-3.16-.12-4.52-.35-1.35-.23-2.59-.53-3.67-.88-1.08-.35-2.04-.72-2.83-1.1-.53-.25-1-.48-1.39-.7l-1.17,3.14Z"/>
          </g>
          <g class="cls-6">
            <path class="cls-4" d="M227.34,50.59v-19.74c-3.29-5.03-6.32-9.89-9.08-14.58-2.76-4.69-5.32-9.25-7.69-13.68h5.47c1.94,4.06,4.09,8.19,6.42,12.37,2.34,4.18,4.78,8.16,7.33,11.95,2.45-3.79,4.86-7.77,7.22-11.95,2.36-4.18,4.54-8.3,6.53-12.37h5.13c-2.45,4.39-5.03,8.95-7.76,13.68-2.73,4.73-5.68,9.55-8.87,14.44v19.88h-4.71Z"/>
            <path class="cls-4" d="M232.56,51.09h-5.71v-20.09c-3.25-4.97-6.28-9.84-9.01-14.48-2.75-4.67-5.34-9.28-7.7-13.7l-.39-.74h6.62l.14.28c1.93,4.03,4.08,8.18,6.41,12.34,2.19,3.92,4.51,7.72,6.88,11.28,2.3-3.58,4.59-7.37,6.79-11.29,2.34-4.15,4.54-8.3,6.51-12.34l.14-.28h6.29l-.42.74c-2.46,4.41-5.07,9.01-7.76,13.69-2.7,4.69-5.66,9.52-8.8,14.34v20.23ZM227.84,50.09h3.71v-19.53l.08-.12c3.16-4.85,6.14-9.7,8.85-14.42,2.54-4.41,5-8.75,7.34-12.93h-3.96c-1.95,3.97-4.11,8.04-6.4,12.11-2.35,4.16-4.79,8.19-7.24,11.98l-.41.64-.42-.63c-2.54-3.77-5.01-7.81-7.35-11.99-2.28-4.08-4.4-8.15-6.3-12.11h-4.32c2.24,4.18,4.69,8.52,7.28,12.93,2.74,4.66,5.79,9.56,9.07,14.56l.08.12v19.39Z"/>
          </g>
          <g class="cls-6">
            <path class="cls-4" d="M287.54,16.99c0,3.6-.95,6.44-2.84,8.52-1.89,2.08-4.39,3.58-7.48,4.5.74.92,1.7,2.17,2.88,3.74,1.18,1.57,2.39,3.29,3.64,5.16,1.25,1.87,2.47,3.82,3.67,5.85,1.2,2.03,2.22,3.97,3.05,5.82h-5.06c-.97-1.85-2.02-3.69-3.15-5.54-1.13-1.85-2.29-3.64-3.46-5.37s-2.32-3.34-3.43-4.81c-1.11-1.48-2.08-2.77-2.91-3.88-1.48.14-2.96.21-4.43.21h-7.76v19.4h-4.71V3.48c1.66-.46,3.61-.8,5.85-1s4.31-.31,6.2-.31c6.6,0,11.58,1.25,14.93,3.74,3.35,2.49,5.02,6.19,5.02,11.08ZM268.15,6.25c-1.76,0-3.29.06-4.61.17-1.32.12-2.41.22-3.29.31v20.44h6.51c2.17,0,4.23-.1,6.17-.31,1.94-.21,3.62-.67,5.06-1.39,1.43-.72,2.56-1.74,3.39-3.08.83-1.34,1.25-3.16,1.25-5.47,0-2.12-.42-3.88-1.25-5.27-.83-1.39-1.92-2.48-3.26-3.29-1.34-.81-2.88-1.36-4.61-1.66-1.73-.3-3.52-.45-5.37-.45Z"/>
            <path class="cls-4" d="M291.23,51.09h-6.13l-.14-.27c-.96-1.83-2.01-3.68-3.14-5.51-1.14-1.86-2.3-3.66-3.45-5.35-1.16-1.7-2.31-3.32-3.42-4.8l-2.74-3.66c-1.4.12-2.81.19-4.2.19h-7.26v19.4h-5.71V3.1l.37-.1c1.69-.47,3.69-.81,5.94-1.02,2.24-.21,4.34-.31,6.25-.31,6.68,0,11.81,1.29,15.23,3.84,3.47,2.58,5.22,6.45,5.22,11.48,0,3.71-1,6.69-2.97,8.86-1.8,1.98-4.16,3.46-7.01,4.42.67.86,1.49,1.92,2.43,3.18,1.18,1.57,2.4,3.31,3.65,5.18,1.23,1.85,2.47,3.83,3.69,5.88,1.21,2.04,2.24,4.02,3.07,5.87l.32.71ZM285.7,50.09h3.98c-.76-1.61-1.66-3.31-2.7-5.06-1.2-2.03-2.43-4-3.66-5.83-1.24-1.86-2.46-3.58-3.62-5.14-1.16-1.55-2.12-2.8-2.87-3.73l-.46-.58.71-.21c2.99-.89,5.43-2.36,7.25-4.36,1.8-1.97,2.71-4.73,2.71-8.18,0-4.71-1.62-8.3-4.82-10.68-3.24-2.42-8.17-3.64-14.63-3.64-1.87,0-3.94.1-6.15.31-2.03.19-3.85.49-5.4.89v46.22h3.71v-19.4h8.26c1.46,0,2.93-.07,4.39-.21l.28-.03,3.08,4.1c1.12,1.49,2.28,3.12,3.44,4.83,1.16,1.71,2.33,3.52,3.48,5.39,1.08,1.76,2.1,3.54,3.03,5.3ZM266.76,27.67h-7.01V6.28l.45-.05c.88-.09,1.98-.2,3.3-.31,1.33-.12,2.9-.18,4.65-.18,1.87,0,3.7.15,5.45.46,1.79.31,3.39.89,4.78,1.73,1.41.85,2.56,2.01,3.43,3.46.88,1.46,1.32,3.32,1.32,5.52,0,2.39-.45,4.32-1.32,5.74-.88,1.41-2.09,2.51-3.6,3.27-1.48.74-3.23,1.22-5.23,1.44-1.95.21-4.04.31-6.22.31ZM260.75,26.67h6.01c2.15,0,4.2-.1,6.11-.31,1.87-.2,3.52-.65,4.89-1.34,1.34-.67,2.42-1.65,3.19-2.9.78-1.25,1.17-3.01,1.17-5.21,0-2.02-.4-3.71-1.18-5.01-.78-1.31-1.82-2.36-3.09-3.12-1.28-.77-2.77-1.31-4.43-1.6-1.7-.29-3.48-.44-5.28-.44s-3.26.06-4.56.17c-1.1.1-2.04.19-2.83.26v19.48Z"/>
          </g>
          <g class="cls-6">
            <path class="cls-4" d="M295.93,32.64c0-3.14.45-5.88,1.35-8.21.9-2.33,2.08-4.28,3.53-5.85,1.45-1.57,3.12-2.74,4.99-3.5,1.87-.76,3.8-1.14,5.78-1.14,4.39,0,7.89,1.43,10.5,4.3,2.61,2.86,3.91,7.27,3.91,13.23,0,.37-.01.74-.03,1.11-.02.37-.06.72-.1,1.04h-25.15c.14,4.39,1.22,7.76,3.26,10.11,2.03,2.36,5.27,3.53,9.7,3.53,2.45,0,4.39-.23,5.82-.69,1.43-.46,2.47-.85,3.12-1.18l.83,3.88c-.65.37-1.86.81-3.64,1.32-1.78.51-3.87.76-6.27.76-3.14,0-5.82-.46-8.04-1.39s-4.04-2.22-5.47-3.88c-1.43-1.66-2.47-3.64-3.12-5.92-.65-2.29-.97-4.79-.97-7.52ZM321.35,29.8c-.09-3.74-.97-6.65-2.63-8.73-1.66-2.08-4.02-3.12-7.07-3.12-1.62,0-3.06.32-4.33.97-1.27.65-2.38,1.51-3.33,2.6-.95,1.09-1.69,2.34-2.22,3.78-.53,1.43-.84,2.93-.94,4.5h20.51Z"/>
            <path class="cls-4" d="M313.52,51.85c-3.19,0-5.96-.48-8.23-1.42-2.28-.95-4.18-2.3-5.66-4.01-1.47-1.71-2.56-3.77-3.22-6.11-.66-2.32-.99-4.89-.99-7.65,0-3.19.47-6.01,1.38-8.39.92-2.38,2.14-4.4,3.63-6.01,1.5-1.62,3.24-2.84,5.17-3.62,1.92-.78,3.93-1.18,5.97-1.18,4.51,0,8.17,1.5,10.86,4.46,2.68,2.95,4.04,7.51,4.04,13.57,0,.38-.01.76-.04,1.14-.02.39-.06.74-.11,1.08l-.06.43h-25.06c.2,4,1.25,7.12,3.11,9.29,1.92,2.23,5.06,3.36,9.32,3.36,2.38,0,4.29-.23,5.67-.67,1.4-.45,2.42-.84,3.05-1.15l.58-.29,1.04,4.87-.32.18c-.69.39-1.91.84-3.75,1.36-1.82.52-3.97.78-6.41.78ZM311.58,14.44c-1.91,0-3.79.37-5.6,1.11-1.79.73-3.41,1.87-4.81,3.38-1.41,1.52-2.56,3.43-3.43,5.69-.87,2.26-1.32,4.97-1.32,8.03,0,2.67.32,5.15.95,7.38.62,2.21,1.64,4.13,3.01,5.73,1.37,1.6,3.15,2.85,5.29,3.74,2.15.89,4.79,1.35,7.84,1.35,2.34,0,4.4-.25,6.13-.74,1.47-.42,2.54-.79,3.21-1.1l-.62-2.9c-.65.28-1.52.59-2.61.94-1.47.48-3.48.72-5.97.72-4.57,0-7.96-1.25-10.08-3.71-2.1-2.43-3.24-5.94-3.38-10.42l-.02-.52h25.22c.02-.18.04-.37.05-.57.02-.36.03-.72.03-1.08,0-5.8-1.27-10.14-3.78-12.89-2.5-2.74-5.91-4.13-10.13-4.13ZM321.86,30.3h-21.55l.03-.53c.09-1.61.42-3.17.97-4.65.55-1.48,1.33-2.8,2.31-3.93.98-1.13,2.15-2.04,3.48-2.72,1.33-.68,2.87-1.02,4.56-1.02,3.19,0,5.7,1.11,7.46,3.3,1.72,2.16,2.65,5.19,2.74,9.03v.51ZM301.38,29.3h19.45c-.16-3.37-1-6.03-2.51-7.92-1.58-1.97-3.76-2.93-6.68-2.93-1.53,0-2.91.31-4.1.92-1.21.62-2.28,1.45-3.17,2.48-.9,1.04-1.62,2.25-2.12,3.62-.45,1.22-.74,2.5-.87,3.83Z"/>
          </g>
          <g class="cls-6">
            <path class="cls-4" d="M350.86,51.35c-2.77,0-5.22-.44-7.34-1.32-2.12-.88-3.89-2.14-5.3-3.78-1.41-1.64-2.48-3.6-3.22-5.89-.74-2.29-1.11-4.81-1.11-7.59s.38-5.38,1.14-7.69c.76-2.31,1.86-4.29,3.29-5.96,1.43-1.66,3.16-2.94,5.2-3.84,2.03-.9,4.32-1.35,6.86-1.35,1.94,0,3.75.16,5.44.48,1.69.32,2.99.74,3.91,1.25l-1.18,3.88c-.92-.46-1.96-.83-3.12-1.11-1.16-.28-2.7-.42-4.64-.42-3.97,0-6.99,1.28-9.04,3.84-2.06,2.56-3.08,6.2-3.08,10.91,0,2.12.23,4.08.69,5.85.46,1.78,1.21,3.3,2.25,4.57,1.04,1.27,2.38,2.26,4.02,2.98,1.64.72,3.64,1.07,5.99,1.07,1.94,0,3.57-.22,4.88-.66,1.32-.44,2.27-.82,2.87-1.14l.97,3.88c-.83.46-2.14.91-3.91,1.35-1.78.44-3.64.66-5.58.66Z"/>
            <path class="cls-4" d="M350.86,51.85c-2.82,0-5.36-.46-7.53-1.35-2.19-.9-4.04-2.22-5.49-3.91-1.45-1.68-2.56-3.72-3.32-6.06-.75-2.32-1.13-4.93-1.13-7.74s.39-5.5,1.17-7.85c.78-2.36,1.92-4.42,3.39-6.13,1.47-1.71,3.28-3.05,5.37-3.98,2.08-.92,4.46-1.39,7.06-1.39,1.96,0,3.82.17,5.53.49,1.73.33,3.1.77,4.06,1.3l.36.2-1.47,4.83-.53-.26c-.89-.44-1.9-.8-3.01-1.07-1.11-.27-2.63-.4-4.52-.4-3.79,0-6.7,1.23-8.65,3.66-1.97,2.46-2.97,6.03-2.97,10.6,0,2.08.23,4,.68,5.73.44,1.7,1.17,3.17,2.15,4.38.98,1.2,2.27,2.16,3.83,2.84,1.57.69,3.52,1.03,5.79,1.03,1.88,0,3.47-.21,4.73-.63,1.28-.43,2.22-.8,2.79-1.11l.57-.31,1.22,4.88-.33.19c-.88.49-2.2.95-4.04,1.4-1.81.45-3.73.67-5.7.67ZM350.38,14.44c-2.46,0-4.7.44-6.66,1.31-1.96.87-3.64,2.12-5.02,3.71-1.38,1.6-2.46,3.55-3.2,5.79-.74,2.25-1.12,4.78-1.12,7.53s.37,5.21,1.08,7.43c.71,2.21,1.76,4.14,3.12,5.72,1.35,1.57,3.07,2.8,5.11,3.64,2.06.85,4.46,1.28,7.15,1.28,1.89,0,3.73-.22,5.46-.64,1.5-.37,2.66-.75,3.45-1.13l-.72-2.9c-.6.27-1.38.56-2.38.9-1.36.45-3.06.68-5.04.68-2.42,0-4.5-.38-6.19-1.12-1.71-.74-3.12-1.79-4.2-3.12-1.08-1.32-1.87-2.92-2.35-4.76-.47-1.81-.71-3.82-.71-5.98,0-4.81,1.07-8.58,3.19-11.22,2.14-2.68,5.32-4.03,9.43-4.03,1.97,0,3.57.14,4.76.43.97.23,1.87.53,2.69.9l.89-2.93c-.85-.4-1.99-.74-3.41-1.01-1.65-.32-3.45-.48-5.34-.48Z"/>
          </g>
          <g class="cls-6">
            <path class="cls-4" d="M380.09,14.08c1.48,0,2.87.12,4.19.35,1.32.23,2.23.46,2.74.69l-.9,3.88c-.37-.18-1.12-.38-2.25-.59-1.13-.21-2.62-.31-4.47-.31-1.94,0-3.5.14-4.68.42-1.18.28-1.95.51-2.32.69v31.38h-4.5V16.43c1.15-.51,2.75-1.03,4.78-1.56,2.03-.53,4.5-.8,7.41-.8Z"/>
            <path class="cls-4" d="M372.9,51.09h-5.5V16.11l.3-.13c1.17-.52,2.8-1.05,4.85-1.58,2.07-.54,4.6-.81,7.54-.81,1.5,0,2.94.12,4.28.35,1.37.24,2.31.48,2.86.73l.37.17-1.14,4.9-.57-.28c-.23-.11-.78-.3-2.12-.54-1.1-.2-2.57-.3-4.38-.3s-3.43.14-4.56.4c-1.02.24-1.6.42-1.93.54v31.55ZM368.4,50.09h3.5v-31.19l.28-.14c.41-.2,1.2-.44,2.43-.73,1.21-.28,2.82-.43,4.79-.43s3.4.11,4.56.32c.77.14,1.36.28,1.8.41l.67-2.9c-.51-.17-1.25-.34-2.24-.51-1.28-.22-2.66-.34-4.1-.34-2.85,0-5.3.26-7.29.78-1.83.48-3.31.95-4.41,1.4v33.32Z"/>
          </g>
          <g class="cls-6">
            <path class="cls-4" d="M421.31,49.34c-1.34.37-3.14.79-5.4,1.25-2.26.46-5.04.69-8.31.69-2.68,0-4.92-.39-6.72-1.18-1.8-.78-3.26-1.89-4.36-3.33-1.11-1.43-1.91-3.16-2.39-5.2-.49-2.03-.73-4.27-.73-6.72V14.77h4.5v18.63c0,2.54.18,4.69.55,6.44.37,1.76.97,3.18,1.8,4.26.83,1.09,1.91,1.87,3.22,2.35,1.32.49,2.92.73,4.82.73,2.12,0,3.97-.11,5.54-.35,1.57-.23,2.56-.44,2.98-.62V14.77h4.5v34.57Z"/>
            <path class="cls-4" d="M407.59,51.78c-2.73,0-5.06-.41-6.92-1.22-1.87-.82-3.41-1.99-4.56-3.48-1.15-1.48-1.98-3.29-2.48-5.39-.49-2.06-.74-4.36-.74-6.84V14.27h5.5v19.13c0,2.5.18,4.63.54,6.34.35,1.67.93,3.04,1.71,4.06.77,1,1.78,1.74,3,2.19,1.25.46,2.82.7,4.64.7,2.09,0,3.93-.11,5.47-.34,1.41-.21,2.16-.37,2.55-.48V14.27h5.5v35.45l-.37.1c-1.35.37-3.18.79-5.44,1.25-2.29.47-5.12.7-8.41.7ZM393.89,15.27v19.59c0,2.4.24,4.62.71,6.6.47,1.95,1.24,3.64,2.3,5.01,1.05,1.36,2.45,2.43,4.17,3.17,1.73.75,3.92,1.14,6.52,1.14,3.23,0,5.99-.23,8.21-.68,2.04-.42,3.72-.8,5-1.14V15.27h-3.5v31.28l-.3.13c-.29.13-.94.34-3.11.66-1.58.23-3.47.35-5.61.35-1.95,0-3.62-.26-4.99-.76-1.4-.52-2.56-1.36-3.45-2.52-.87-1.14-1.51-2.64-1.89-4.46-.38-1.78-.56-3.98-.56-6.55V15.27h-3.5Z"/>
          </g>
          <g class="cls-6">
            <path class="cls-4" d="M438.77,3.96c0,1.06-.32,1.91-.97,2.53s-1.43.94-2.35.94-1.71-.31-2.36-.94c-.65-.62-.97-1.47-.97-2.53s.32-1.9.97-2.53c.65-.62,1.43-.94,2.36-.94s1.71.31,2.35.94.97,1.47.97,2.53ZM437.73,50.59h-4.5V14.77h4.5v35.81Z"/>
            <path class="cls-4" d="M438.23,51.09h-5.5V14.27h5.5v36.81ZM433.73,50.09h3.5V15.27h-3.5v34.81ZM435.44,7.93c-1.05,0-1.96-.36-2.7-1.08-.74-.72-1.12-1.69-1.12-2.89s.38-2.17,1.12-2.89c.74-.71,1.65-1.07,2.7-1.07s1.96.36,2.7,1.08c.75.72,1.12,1.69,1.12,2.89s-.38,2.17-1.12,2.89c-.74.71-1.65,1.08-2.7,1.08ZM435.44,1c-.8,0-1.45.26-2.01.79-.55.53-.82,1.24-.82,2.17s.27,1.64.82,2.17c.55.54,1.21.8,2.01.8s1.45-.26,2.01-.79c.55-.53.82-1.24.82-2.17s-.27-1.64-.82-2.17c-.55-.53-1.21-.79-2.01-.79Z"/>
          </g>
          <g class="cls-6">
            <path class="cls-4" d="M453.87,14.77h14.27v3.81h-14.27v19.05c0,2.03.17,3.68.52,4.95.35,1.27.84,2.25,1.49,2.94.65.69,1.43,1.15,2.36,1.39.92.23,1.94.35,3.05.35,1.89,0,3.42-.22,4.57-.66,1.15-.44,2.05-.84,2.7-1.21l1.11,3.74c-.65.42-1.78.89-3.39,1.42-1.62.53-3.37.8-5.27.8-2.22,0-4.08-.29-5.58-.87-1.5-.58-2.7-1.45-3.6-2.63s-1.54-2.64-1.91-4.4c-.37-1.75-.55-3.83-.55-6.23V4.24l4.5-.83v11.36Z"/>
            <path class="cls-4" d="M461,51.85c-2.27,0-4.2-.3-5.76-.9-1.58-.61-2.87-1.55-3.82-2.8-.94-1.23-1.62-2.78-2-4.6-.38-1.78-.56-3.91-.56-6.34V3.82l5.5-1.02v11.46h14.27v4.81h-14.27v18.55c0,1.98.17,3.6.5,4.82.32,1.19.79,2.11,1.37,2.73.58.63,1.28,1.03,2.11,1.24.88.22,1.86.33,2.93.33,1.83,0,3.3-.21,4.39-.63,1.13-.43,2.02-.83,2.63-1.18l.55-.31,1.39,4.71-.32.2c-.69.44-1.84.93-3.51,1.47-1.66.55-3.49.82-5.42.82ZM449.87,4.66v32.56c0,2.36.18,4.42.54,6.13.35,1.67.96,3.08,1.81,4.2.84,1.1,1.98,1.93,3.38,2.47,1.44.55,3.25.83,5.4.83,1.83,0,3.55-.26,5.11-.77,1.32-.43,2.32-.83,2.96-1.18l-.82-2.78c-.59.3-1.33.61-2.22.95-1.21.46-2.8.69-4.75.69-1.15,0-2.21-.12-3.17-.36-1.01-.25-1.89-.77-2.6-1.53-.7-.75-1.24-1.81-1.61-3.15-.36-1.31-.54-3.02-.54-5.08v-19.55h14.27v-2.81h-14.27V4.01l-3.5.65Z"/>
          </g>
        </g>
        <g>
          <path class="cls-2" d="M66.24,67.57h-27.28c-2.48,0-4.49-2.01-4.49-4.49s2.01-4.49,4.49-4.49h33.07c1.02-2.21,1.82-4.54,2.4-6.96H26.47c-4.96,0-8.98-4.02-8.98-8.98s4.02-8.98,8.98-8.98h47.87c-.57-2.26-1.34-4.44-2.3-6.51h-33.07c-2.48,0-4.49-2.01-4.49-4.49s2.01-4.49,4.49-4.49h27.28c-6.92-7.98-17.12-13.03-28.51-13.03C16.89,5.13,0,22.02,0,42.86s16.89,37.73,37.73,37.73c11.39,0,21.59-5.05,28.51-13.03Z"/>
          <path class="cls-3" d="M9.21,55.43c2.93-3.16,6.14-5.86,9.61-8.1-.84-1.37-1.33-2.97-1.33-4.69,0-4.96,4.02-8.98,8.98-8.98h47.87c-.57-2.26-1.34-4.44-2.3-6.51h-33.07c-2.48,0-4.49-2.01-4.49-4.49s2.01-4.49,4.49-4.49h27.28c-6.92-7.98-17.12-13.03-28.51-13.03C16.89,5.13,0,22.02,0,42.86c0,6.39,1.59,12.41,4.4,17.68,1.47-1.78,3.07-3.49,4.81-5.11Z"/>
          <path class="cls-5" d="M34.47,22.65c0-2.48,2.01-4.49,4.49-4.49h-8.09c-2.48,0-4.49,2.01-4.49,4.49s2.01,4.49,4.49,4.49h8.09c-2.48,0-4.49-2.01-4.49-4.49ZM34.47,63.08c0-2.48,2.01-4.49,4.49-4.49h-8.09c-2.48,0-4.49,2.01-4.49,4.49s2.01,4.49,4.49,4.49h8.09c-2.48,0-4.49-2.01-4.49-4.49ZM17.48,42.64c0-4.96,4.02-8.98,8.98-8.98h-8.09c-4.96,0-8.98,4.02-8.98,8.98s4.02,8.98,8.98,8.98h8.09c-4.96,0-8.98-4.02-8.98-8.98Z"/>
        </g>
        <g class="cls-1">
          <path class="cls-4" d="M99.89,78.18c-1.07,0-2.07-.19-2.99-.58-.92-.38-1.72-.94-2.4-1.68-.68-.74-1.22-1.64-1.61-2.72-.39-1.08-.59-2.32-.59-3.71s.21-2.63.64-3.71c.42-1.08.99-1.99,1.69-2.72s1.52-1.29,2.45-1.67c.93-.38,1.9-.56,2.9-.56.62,0,1.19.04,1.7.12.51.08.96.18,1.34.3.38.12.71.24.98.36.27.12.48.23.62.32l-.53,1.42c-.4-.24-.91-.48-1.52-.71-.62-.23-1.38-.35-2.29-.35-1.04,0-1.95.18-2.72.53-.78.35-1.43.85-1.96,1.49-.53.64-.92,1.4-1.19,2.28-.26.88-.4,1.86-.4,2.93s.13,2.1.4,2.99c.26.89.65,1.64,1.16,2.27s1.14,1.1,1.88,1.44c.74.34,1.6.5,2.56.5,1.06,0,1.94-.1,2.65-.3.71-.2,1.25-.4,1.62-.61l.46,1.39c-.11.08-.3.17-.58.28-.27.1-.62.21-1.03.32s-.9.2-1.44.28c-.54.07-1.15.11-1.82.11Z"/>
          <path class="cls-4" d="M119.67,71.63c0,.98-.14,1.86-.42,2.66-.28.8-.67,1.48-1.18,2.04-.5.56-1.1,1-1.79,1.31-.69.31-1.45.47-2.28.47s-1.59-.16-2.28-.47c-.69-.31-1.28-.75-1.79-1.31s-.9-1.24-1.18-2.04c-.28-.8-.42-1.69-.42-2.66s.14-1.86.42-2.66c.28-.8.67-1.48,1.18-2.05.5-.57,1.1-1.01,1.79-1.32.69-.31,1.45-.47,2.28-.47s1.59.16,2.28.47c.69.31,1.28.75,1.79,1.32.5.57.9,1.25,1.18,2.05.28.8.42,1.69.42,2.66ZM118.01,71.63c0-1.55-.36-2.79-1.08-3.71-.72-.92-1.7-1.38-2.93-1.38s-2.21.46-2.93,1.38c-.72.92-1.08,2.16-1.08,3.71s.36,2.78,1.08,3.7c.72.91,1.7,1.37,2.93,1.37s2.21-.46,2.93-1.37c.72-.91,1.08-2.14,1.08-3.7Z"/>
          <path class="cls-4" d="M124.64,65.84c.46-.13,1.09-.27,1.87-.43.78-.16,1.74-.24,2.88-.24.94,0,1.73.14,2.36.41.63.27,1.14.66,1.51,1.16.38.5.64,1.11.8,1.81.16.7.24,1.48.24,2.33v6.94h-1.56v-6.43c0-.88-.06-1.62-.18-2.23-.12-.61-.32-1.1-.6-1.49-.28-.38-.65-.66-1.1-.83s-1.03-.25-1.72-.25c-.74,0-1.37.04-1.91.12s-.88.15-1.04.22v10.9h-1.56v-11.98Z"/>
          <path class="cls-4" d="M139.88,65.84c.46-.13,1.09-.27,1.87-.43.78-.16,1.74-.24,2.88-.24.94,0,1.73.14,2.36.41.63.27,1.14.66,1.51,1.16.38.5.64,1.11.8,1.81.16.7.24,1.48.24,2.33v6.94h-1.56v-6.43c0-.88-.06-1.62-.18-2.23-.12-.61-.32-1.1-.6-1.49-.28-.38-.65-.66-1.1-.83s-1.03-.25-1.72-.25c-.74,0-1.37.04-1.91.12s-.88.15-1.04.22v10.9h-1.56v-11.98Z"/>
          <path class="cls-4" d="M154.37,71.6c0-1.09.16-2.04.47-2.84.31-.81.72-1.48,1.22-2.03.5-.54,1.08-.95,1.73-1.21.65-.26,1.32-.4,2-.4,1.52,0,2.73.5,3.64,1.49.9.99,1.36,2.52,1.36,4.58,0,.13,0,.26-.01.38,0,.13-.02.25-.04.36h-8.71c.05,1.52.42,2.69,1.13,3.5s1.82,1.22,3.36,1.22c.85,0,1.52-.08,2.02-.24.5-.16.86-.3,1.08-.41l.29,1.34c-.22.13-.64.28-1.26.46-.62.18-1.34.26-2.17.26-1.09,0-2.02-.16-2.78-.48s-1.4-.77-1.9-1.34-.86-1.26-1.08-2.05-.34-1.66-.34-2.6ZM163.18,70.62c-.03-1.3-.34-2.3-.91-3.02-.58-.72-1.39-1.08-2.45-1.08-.56,0-1.06.11-1.5.34-.44.22-.82.52-1.15.9-.33.38-.58.81-.77,1.31-.18.5-.29,1.02-.32,1.56h7.1Z"/>
          <path class="cls-4" d="M174.99,78.08c-.96,0-1.81-.15-2.54-.46s-1.35-.74-1.84-1.31c-.49-.57-.86-1.25-1.12-2.04-.26-.79-.38-1.67-.38-2.63s.13-1.86.4-2.66c.26-.8.64-1.49,1.14-2.06.5-.58,1.1-1.02,1.8-1.33s1.5-.47,2.38-.47c.67,0,1.3.06,1.88.17.58.11,1.04.26,1.36.43l-.41,1.34c-.32-.16-.68-.29-1.08-.38-.4-.1-.94-.14-1.61-.14-1.38,0-2.42.44-3.13,1.33-.71.89-1.07,2.15-1.07,3.78,0,.74.08,1.41.24,2.03.16.62.42,1.14.78,1.58.36.44.82.78,1.39,1.03.57.25,1.26.37,2.08.37.67,0,1.24-.08,1.69-.23.46-.15.79-.28,1-.4l.34,1.34c-.29.16-.74.32-1.36.47s-1.26.23-1.93.23Z"/>
          <path class="cls-4" d="M183.94,65.41h4.94v1.32h-4.94v6.6c0,.7.06,1.28.18,1.72.12.44.29.78.52,1.02.22.24.5.4.82.48.32.08.67.12,1.06.12.66,0,1.18-.08,1.58-.23.4-.15.71-.29.94-.42l.38,1.3c-.22.14-.62.31-1.18.49-.56.18-1.17.28-1.82.28-.77,0-1.41-.1-1.93-.3-.52-.2-.94-.5-1.25-.91-.31-.41-.53-.92-.66-1.52-.13-.61-.19-1.33-.19-2.16v-11.42l1.56-.29v3.94Z"/>
          <path class="cls-4" d="M192.6,71.6c0-1.09.16-2.04.47-2.84.31-.81.72-1.48,1.22-2.03.5-.54,1.08-.95,1.73-1.21.65-.26,1.32-.4,2-.4,1.52,0,2.73.5,3.64,1.49.9.99,1.36,2.52,1.36,4.58,0,.13,0,.26-.01.38,0,.13-.02.25-.04.36h-8.71c.05,1.52.42,2.69,1.13,3.5s1.82,1.22,3.36,1.22c.85,0,1.52-.08,2.02-.24.5-.16.86-.3,1.08-.41l.29,1.34c-.22.13-.64.28-1.26.46-.62.18-1.34.26-2.17.26-1.09,0-2.02-.16-2.78-.48s-1.4-.77-1.9-1.34-.86-1.26-1.08-2.05-.34-1.66-.34-2.6ZM201.41,70.62c-.03-1.3-.34-2.3-.91-3.02-.58-.72-1.39-1.08-2.45-1.08-.56,0-1.06.11-1.5.34-.44.22-.82.52-1.15.9-.33.38-.58.81-.77,1.31-.18.5-.29,1.02-.32,1.56h7.1Z"/>
          <path class="cls-4" d="M215.79,66.68c-.38.41-.86.99-1.45,1.72-.59.74-1.22,1.56-1.89,2.46-.67.91-1.33,1.85-1.99,2.83-.66.98-1.24,1.92-1.73,2.8h7.28v1.32h-9.07v-1.13c.41-.79.93-1.65,1.54-2.6.61-.95,1.25-1.88,1.91-2.79s1.31-1.78,1.94-2.58,1.15-1.47,1.58-1.99h-6.6v-1.32h8.5v1.27Z"/>
          <path class="cls-4" d="M230.79,78.04c-.53-.02-.99-.08-1.38-.2-.39-.12-.72-.3-.98-.55s-.46-.57-.6-.96c-.14-.39-.2-.88-.2-1.48v-15.36l1.56-.29v15.6c0,.38.04.69.11.92.07.23.18.42.32.55.14.14.33.24.56.3.23.06.51.12.83.17l-.22,1.3Z"/>
          <path class="cls-4" d="M234.6,71.6c0-1.09.16-2.04.47-2.84.31-.81.72-1.48,1.22-2.03.5-.54,1.08-.95,1.73-1.21.65-.26,1.32-.4,2-.4,1.52,0,2.73.5,3.64,1.49.9.99,1.36,2.52,1.36,4.58,0,.13,0,.26-.01.38,0,.13-.02.25-.04.36h-8.71c.05,1.52.42,2.69,1.13,3.5.71.82,1.82,1.22,3.36,1.22.85,0,1.52-.08,2.02-.24.5-.16.86-.3,1.08-.41l.29,1.34c-.22.13-.64.28-1.26.46-.62.18-1.34.26-2.17.26-1.09,0-2.02-.16-2.78-.48s-1.4-.77-1.9-1.34-.86-1.26-1.08-2.05c-.22-.79-.34-1.66-.34-2.6ZM243.41,70.62c-.03-1.3-.34-2.3-.91-3.02-.58-.72-1.39-1.08-2.45-1.08-.56,0-1.06.11-1.5.34-.44.22-.82.52-1.15.9-.33.38-.58.81-.77,1.31-.18.5-.29,1.02-.32,1.56h7.1Z"/>
          <path class="cls-4" d="M252.63,76.72c.9,0,1.64-.15,2.22-.44s.88-.8.88-1.5c0-.34-.05-.62-.16-.86-.1-.24-.28-.46-.52-.65s-.56-.38-.95-.55c-.39-.18-.88-.38-1.45-.62-.46-.19-.9-.39-1.32-.59-.42-.2-.78-.43-1.1-.7s-.58-.58-.77-.95c-.19-.37-.29-.82-.29-1.34,0-1.01.38-1.82,1.14-2.45.76-.62,1.8-.94,3.13-.94.85,0,1.55.07,2.1.22.55.14.94.27,1.16.38l-.36,1.39c-.19-.1-.52-.22-.97-.38-.46-.16-1.12-.24-2-.24-.35,0-.68.04-1,.11-.31.07-.59.18-.83.34-.24.15-.43.34-.58.58-.14.23-.22.52-.22.85s.06.63.19.87c.13.24.32.45.56.64s.55.36.91.52c.36.16.77.33,1.24.53.48.19.94.39,1.38.59.44.2.83.44,1.16.72.34.28.61.62.82,1.01.21.39.31.88.31,1.48,0,1.12-.42,1.97-1.26,2.54-.84.58-1.99.86-3.44.86-1.09,0-1.92-.09-2.5-.28-.58-.18-.96-.32-1.15-.42l.41-1.42s.15.08.31.16c.16.07.38.15.65.24.27.09.6.16.97.23.38.06.81.1,1.31.1Z"/>
          <path class="cls-4" d="M270.46,65.41h4.94v1.32h-4.94v6.6c0,.7.06,1.28.18,1.72.12.44.29.78.52,1.02.22.24.5.4.82.48s.67.12,1.06.12c.66,0,1.18-.08,1.58-.23.4-.15.71-.29.94-.42l.38,1.3c-.22.14-.62.31-1.18.49-.56.18-1.17.28-1.82.28-.77,0-1.41-.1-1.93-.3-.52-.2-.94-.5-1.25-.91-.31-.41-.53-.92-.66-1.52-.13-.61-.19-1.33-.19-2.16v-11.42l1.56-.29v3.94Z"/>
          <path class="cls-4" d="M283.63,65.12c.82,0,1.51.12,2.08.35.57.23,1.03.55,1.38.96.35.41.61.89.77,1.45s.24,1.17.24,1.82v7.82c-.16.05-.39.1-.7.16s-.66.12-1.06.18c-.4.06-.84.12-1.33.16-.49.04-.99.06-1.5.06-.66,0-1.26-.07-1.81-.22-.55-.14-1.03-.37-1.44-.68s-.73-.71-.96-1.2c-.23-.49-.35-1.08-.35-1.79s.13-1.25.38-1.73.62-.88,1.08-1.19c.46-.31,1.02-.54,1.66-.68.64-.14,1.33-.22,2.09-.22.22,0,.46.01.71.04.25.02.49.06.72.1.23.04.43.08.6.12.17.04.28.08.35.11v-.77c0-.43-.03-.85-.1-1.26-.06-.41-.2-.78-.42-1.1-.22-.33-.52-.59-.91-.79-.39-.2-.91-.3-1.55-.3-.91,0-1.59.06-2.04.19s-.78.23-.98.31l-.22-1.37c.27-.13.69-.25,1.26-.36.57-.11,1.25-.17,2.05-.17ZM283.78,76.69c.61,0,1.14-.02,1.6-.06.46-.04.84-.09,1.16-.16v-4.37c-.18-.08-.46-.16-.84-.25-.38-.09-.91-.13-1.58-.13-.38,0-.78.03-1.2.08-.42.06-.8.18-1.15.36-.35.18-.64.44-.86.76-.22.32-.34.74-.34,1.27,0,.46.08.86.23,1.18.15.32.37.58.65.77.28.19.62.33,1.01.42.39.09.84.13,1.33.13Z"/>
          <path class="cls-4" d="M296.81,78.04c-.53-.02-.99-.08-1.38-.2-.39-.12-.72-.3-.98-.55-.26-.25-.46-.57-.6-.96-.14-.39-.2-.88-.2-1.48v-15.36l1.56-.29v15.6c0,.38.04.69.11.92.07.23.18.42.32.55.14.14.33.24.56.3.23.06.51.12.83.17l-.22,1.3Z"/>
          <path class="cls-4" d="M300.63,71.6c0-1.09.16-2.04.47-2.84.31-.81.72-1.48,1.22-2.03s1.08-.95,1.73-1.21c.65-.26,1.32-.4,2-.4,1.52,0,2.73.5,3.64,1.49.9.99,1.36,2.52,1.36,4.58,0,.13,0,.26-.01.38,0,.13-.02.25-.04.36h-8.71c.05,1.52.42,2.69,1.13,3.5s1.82,1.22,3.36,1.22c.85,0,1.52-.08,2.02-.24.5-.16.86-.3,1.08-.41l.29,1.34c-.22.13-.64.28-1.26.46s-1.34.26-2.17.26c-1.09,0-2.02-.16-2.78-.48-.77-.32-1.4-.77-1.9-1.34-.5-.58-.86-1.26-1.08-2.05-.22-.79-.34-1.66-.34-2.6ZM309.43,70.62c-.03-1.3-.34-2.3-.91-3.02-.58-.72-1.39-1.08-2.45-1.08-.56,0-1.06.11-1.5.34-.44.22-.82.52-1.15.9-.33.38-.58.81-.77,1.31-.18.5-.29,1.02-.32,1.56h7.1Z"/>
          <path class="cls-4" d="M316.1,65.84c.46-.13,1.09-.27,1.87-.43.78-.16,1.74-.24,2.88-.24.94,0,1.73.14,2.36.41.63.27,1.14.66,1.51,1.16.38.5.64,1.11.8,1.81.16.7.24,1.48.24,2.33v6.94h-1.56v-6.43c0-.88-.06-1.62-.18-2.23-.12-.61-.32-1.1-.6-1.49-.28-.38-.65-.66-1.1-.83s-1.03-.25-1.72-.25c-.74,0-1.37.04-1.91.12s-.88.15-1.04.22v10.9h-1.56v-11.98Z"/>
          <path class="cls-4" d="M332.81,65.41h4.94v1.32h-4.94v6.6c0,.7.06,1.28.18,1.72.12.44.29.78.52,1.02.22.24.5.4.82.48s.67.12,1.06.12c.66,0,1.18-.08,1.58-.23.4-.15.71-.29.94-.42l.38,1.3c-.22.14-.62.31-1.18.49-.56.18-1.17.28-1.82.28-.77,0-1.41-.1-1.93-.3-.52-.2-.94-.5-1.25-.91-.31-.41-.53-.92-.66-1.52-.13-.61-.19-1.33-.19-2.16v-11.42l1.56-.29v3.94Z"/>
          <path class="cls-4" d="M344.76,76.72c.9,0,1.64-.15,2.22-.44s.88-.8.88-1.5c0-.34-.05-.62-.16-.86-.1-.24-.28-.46-.52-.65s-.56-.38-.95-.55c-.39-.18-.88-.38-1.45-.62-.46-.19-.9-.39-1.32-.59-.42-.2-.78-.43-1.1-.7s-.58-.58-.77-.95c-.19-.37-.29-.82-.29-1.34,0-1.01.38-1.82,1.14-2.45.76-.62,1.8-.94,3.13-.94.85,0,1.55.07,2.1.22.55.14.94.27,1.16.38l-.36,1.39c-.19-.1-.52-.22-.97-.38-.46-.16-1.12-.24-2-.24-.35,0-.68.04-1,.11-.31.07-.59.18-.83.34-.24.15-.43.34-.58.58-.14.23-.22.52-.22.85s.06.63.19.87c.13.24.32.45.56.64s.55.36.91.52c.36.16.77.33,1.24.53.48.19.94.39,1.38.59.44.2.83.44,1.16.72.34.28.61.62.82,1.01.21.39.31.88.31,1.48,0,1.12-.42,1.97-1.26,2.54-.84.58-1.99.86-3.44.86-1.09,0-1.92-.09-2.5-.28-.58-.18-.96-.32-1.15-.42l.41-1.42s.15.08.31.16c.16.07.38.15.65.24.27.09.6.16.97.23.38.06.81.1,1.31.1Z"/>
          <path class="cls-4" d="M364.9,65.12c.82,0,1.51.12,2.08.35.57.23,1.03.55,1.38.96.35.41.61.89.77,1.45s.24,1.17.24,1.82v7.82c-.16.05-.39.1-.7.16s-.66.12-1.06.18c-.4.06-.84.12-1.33.16-.49.04-.99.06-1.5.06-.66,0-1.26-.07-1.81-.22-.55-.14-1.03-.37-1.44-.68s-.73-.71-.96-1.2c-.23-.49-.35-1.08-.35-1.79s.13-1.25.38-1.73.62-.88,1.08-1.19c.46-.31,1.02-.54,1.66-.68.64-.14,1.33-.22,2.09-.22.22,0,.46.01.71.04.25.02.49.06.72.1.23.04.43.08.6.12.17.04.28.08.35.11v-.77c0-.43-.03-.85-.1-1.26-.06-.41-.2-.78-.42-1.1-.22-.33-.52-.59-.91-.79-.39-.2-.91-.3-1.55-.3-.91,0-1.59.06-2.04.19s-.78.23-.98.31l-.22-1.37c.27-.13.69-.25,1.26-.36.57-.11,1.25-.17,2.05-.17ZM365.04,76.69c.61,0,1.14-.02,1.6-.06.46-.04.84-.09,1.16-.16v-4.37c-.18-.08-.46-.16-.84-.25-.38-.09-.91-.13-1.58-.13-.38,0-.78.03-1.2.08-.42.06-.8.18-1.15.36-.35.18-.64.44-.86.76-.22.32-.34.74-.34,1.27,0,.46.08.86.23,1.18.15.32.37.58.65.77.28.19.62.33,1.01.42.39.09.84.13,1.33.13Z"/>
          <path class="cls-4" d="M384.46,77.39c-.46.13-1.09.27-1.87.43s-1.74.24-2.88.24c-.93,0-1.7-.14-2.33-.41s-1.13-.66-1.51-1.15-.66-1.1-.83-1.8c-.17-.7-.25-1.48-.25-2.33v-6.96h1.56v6.46c0,.88.06,1.62.19,2.23.13.61.34,1.1.62,1.48.29.38.66.65,1.12.82.46.17,1.01.25,1.67.25.74,0,1.38-.04,1.92-.12s.89-.15,1.03-.22v-10.9h1.56v11.98Z"/>
          <path class="cls-4" d="M399.77,76.72c.9,0,1.64-.15,2.22-.44s.88-.8.88-1.5c0-.34-.05-.62-.16-.86-.1-.24-.28-.46-.52-.65s-.56-.38-.95-.55c-.39-.18-.88-.38-1.45-.62-.46-.19-.9-.39-1.32-.59-.42-.2-.78-.43-1.1-.7s-.58-.58-.77-.95c-.19-.37-.29-.82-.29-1.34,0-1.01.38-1.82,1.14-2.45.76-.62,1.8-.94,3.13-.94.85,0,1.55.07,2.1.22.55.14.94.27,1.16.38l-.36,1.39c-.19-.1-.52-.22-.97-.38-.46-.16-1.12-.24-2-.24-.35,0-.68.04-1,.11-.31.07-.59.18-.83.34-.24.15-.43.34-.58.58-.14.23-.22.52-.22.85s.06.63.19.87c.13.24.32.45.56.64s.55.36.91.52c.36.16.77.33,1.24.53.48.19.94.39,1.38.59.44.2.83.44,1.16.72.34.28.61.62.82,1.01.21.39.31.88.31,1.48,0,1.12-.42,1.97-1.26,2.54-.84.58-1.99.86-3.44.86-1.09,0-1.92-.09-2.5-.28-.58-.18-.96-.32-1.15-.42l.41-1.42s.15.08.31.16c.16.07.38.15.65.24.27.09.6.16.97.23.38.06.81.1,1.31.1Z"/>
          <path class="cls-4" d="M418.61,77.39c-.46.13-1.09.27-1.87.43s-1.74.24-2.88.24c-.93,0-1.7-.14-2.33-.41s-1.13-.66-1.51-1.15-.66-1.1-.83-1.8c-.17-.7-.25-1.48-.25-2.33v-6.96h1.56v6.46c0,.88.06,1.62.19,2.23.13.61.34,1.1.62,1.48.29.38.66.65,1.12.82.46.17,1.01.25,1.67.25.74,0,1.38-.04,1.92-.12s.89-.15,1.03-.22v-10.9h1.56v11.98Z"/>
          <path class="cls-4" d="M429.45,78.08c-.96,0-1.81-.15-2.54-.46-.74-.3-1.35-.74-1.84-1.31-.49-.57-.86-1.25-1.12-2.04s-.38-1.67-.38-2.63.13-1.86.4-2.66c.26-.8.64-1.49,1.14-2.06.5-.58,1.1-1.02,1.8-1.33s1.5-.47,2.38-.47c.67,0,1.3.06,1.88.17s1.04.26,1.36.43l-.41,1.34c-.32-.16-.68-.29-1.08-.38-.4-.1-.94-.14-1.61-.14-1.38,0-2.42.44-3.13,1.33-.71.89-1.07,2.15-1.07,3.78,0,.74.08,1.41.24,2.03.16.62.42,1.14.78,1.58.36.44.82.78,1.39,1.03.57.25,1.26.37,2.08.37.67,0,1.24-.08,1.69-.23.46-.15.79-.28,1-.4l.34,1.34c-.29.16-.74.32-1.36.47s-1.26.23-1.93.23Z"/>
          <path class="cls-4" d="M442.08,78.08c-.96,0-1.81-.15-2.54-.46-.74-.3-1.35-.74-1.84-1.31-.49-.57-.86-1.25-1.12-2.04s-.38-1.67-.38-2.63.13-1.86.4-2.66c.26-.8.64-1.49,1.14-2.06.5-.58,1.1-1.02,1.8-1.33s1.5-.47,2.38-.47c.67,0,1.3.06,1.88.17s1.04.26,1.36.43l-.41,1.34c-.32-.16-.68-.29-1.08-.38-.4-.1-.94-.14-1.61-.14-1.38,0-2.42.44-3.13,1.33-.71.89-1.07,2.15-1.07,3.78,0,.74.08,1.41.24,2.03.16.62.42,1.14.78,1.58.36.44.82.78,1.39,1.03.57.25,1.26.37,2.08.37.67,0,1.24-.08,1.69-.23.46-.15.79-.28,1-.4l.34,1.34c-.29.16-.74.32-1.36.47s-1.26.23-1.93.23Z"/>
          <path class="cls-4" d="M448.82,71.6c0-1.09.16-2.04.47-2.84.31-.81.72-1.48,1.22-2.03s1.08-.95,1.73-1.21c.65-.26,1.32-.4,2-.4,1.52,0,2.73.5,3.64,1.49.9.99,1.36,2.52,1.36,4.58,0,.13,0,.26-.01.38,0,.13-.02.25-.04.36h-8.71c.05,1.52.42,2.69,1.13,3.5s1.82,1.22,3.36,1.22c.85,0,1.52-.08,2.02-.24.5-.16.86-.3,1.08-.41l.29,1.34c-.22.13-.64.28-1.26.46s-1.34.26-2.17.26c-1.09,0-2.02-.16-2.78-.48-.77-.32-1.4-.77-1.9-1.34-.5-.58-.86-1.26-1.08-2.05-.22-.79-.34-1.66-.34-2.6ZM457.63,70.62c-.03-1.3-.34-2.3-.91-3.02-.58-.72-1.39-1.08-2.45-1.08-.56,0-1.06.11-1.5.34-.44.22-.82.52-1.15.9-.33.38-.58.81-.77,1.31-.18.5-.29,1.02-.32,1.56h7.1ZM452.01,59.27l3.79,3.65-.79.91-4.1-3.34,1.1-1.22Z"/>
          <path class="cls-4" d="M466.85,76.72c.9,0,1.64-.15,2.22-.44s.88-.8.88-1.5c0-.34-.05-.62-.16-.86-.1-.24-.28-.46-.52-.65s-.56-.38-.95-.55c-.39-.18-.88-.38-1.45-.62-.46-.19-.9-.39-1.32-.59-.42-.2-.78-.43-1.1-.7s-.58-.58-.77-.95c-.19-.37-.29-.82-.29-1.34,0-1.01.38-1.82,1.14-2.45.76-.62,1.8-.94,3.13-.94.85,0,1.55.07,2.1.22.55.14.94.27,1.16.38l-.36,1.39c-.19-.1-.52-.22-.97-.38-.46-.16-1.12-.24-2-.24-.35,0-.68.04-1,.11-.31.07-.59.18-.83.34-.24.15-.43.34-.58.58-.14.23-.22.52-.22.85s.06.63.19.87c.13.24.32.45.56.64s.55.36.91.52c.36.16.77.33,1.24.53.48.19.94.39,1.38.59.44.2.83.44,1.16.72.34.28.61.62.82,1.01.21.39.31.88.31,1.48,0,1.12-.42,1.97-1.26,2.54-.84.58-1.99.86-3.44.86-1.09,0-1.92-.09-2.5-.28-.58-.18-.96-.32-1.15-.42l.41-1.42s.15.08.31.16c.16.07.38.15.65.24.27.09.6.16.97.23.38.06.81.1,1.31.1Z"/>
        </g>
      </g>
    </g>
  </g>
</svg>