<?xml version="1.0" encoding="UTF-8"?>
<svg id="Layer_1" data-name="Layer 1" xmlns="http://www.w3.org/2000/svg" viewBox="0 0 78.07 74">
  <defs>
    <style>
      .cls-1 {
        fill: #ee3a87;
      }

      .cls-1, .cls-2 {
        stroke-width: 0px;
      }

      .cls-2 {
        fill: #2c4395;
      }
    </style>
  </defs>
  <path class="cls-2" d="M50.64,41.76c-1.02-.49-2.06-.9-3.11-1.29,5.95-3.96,9.88-10.72,9.88-18.38C57.41,9.9,47.5,0,35.33,0S13.25,9.9,13.25,22.08c0,7.68,3.94,14.44,9.9,18.4C9.66,45.46,0,58.4,0,73.6h5.89c0-16.23,13.21-29.44,29.44-29.44,4.47,0,8.77.98,12.76,2.9l2.56-5.3ZM19.14,22.08c0-8.93,7.26-16.19,16.19-16.19s16.19,7.26,16.19,16.19-7.26,16.19-16.19,16.19-16.19-7.26-16.19-16.19Z"/>
  <path class="cls-1" d="M62.61,43.09c-8.52,0-15.46,6.93-15.46,15.46s6.93,15.46,15.46,15.46,15.46-6.93,15.46-15.46-6.93-15.46-15.46-15.46ZM62.61,69.59c-6.09,0-11.04-4.95-11.04-11.04s4.95-11.04,11.04-11.04,11.04,4.95,11.04,11.04-4.95,11.04-11.04,11.04Z"/>
  <polygon class="cls-1" points="64.82 51.06 60.41 51.06 60.41 56.34 55.13 56.34 55.13 60.75 60.41 60.75 60.41 66.03 64.82 66.03 64.82 60.75 70.1 60.75 70.1 56.34 64.82 56.34 64.82 51.06"/>
</svg>