<?xml version="1.0" encoding="UTF-8"?>
<svg id="Objects" xmlns="http://www.w3.org/2000/svg" viewBox="0 0 917.52 917.52">
  <defs>
    <style>
      .cls-1 {
        fill: #e0e0e0;
      }

      .cls-1, .cls-2 {
        stroke-width: 0px;
      }

      .cls-2 {
        fill: #9e9e9e;
      }
    </style>
  </defs>
  <path class="cls-1" d="M917.52,458.76c0,128.36-52.72,244.4-137.68,327.66-7.47,7.32-15.2,14.39-23.16,21.19-14.58,12.49-29.96,24.06-46.04,34.64-72.3,47.59-158.86,75.27-251.88,75.27s-179.58-27.68-251.88-75.27c-16.08-10.58-31.46-22.15-46.04-34.64-7.96-6.8-15.69-13.88-23.16-21.19C52.72,703.15,0,587.12,0,458.76,0,205.39,205.39,0,458.76,0s458.76,205.39,458.76,458.76Z"/>
  <path class="cls-2" d="M779.84,786.41c-7.47,7.32-15.2,14.39-23.16,21.19-14.58,12.49-29.96,24.06-46.04,34.64-72.3,47.59-158.86,75.27-251.88,75.27s-179.58-27.68-251.88-75.27c-16.08-10.58-31.46-22.15-46.04-34.64-7.96-6.8-15.69-13.88-23.16-21.19,18.33-52.04,60.18-93.99,114.89-111.24l137.18-43.33v-22.64c-17.12-10.07-32.57-21.66-45.26-30.36-23.6-15.88-39.34-40.85-44.03-68.88l-7.32-43.74c-22.91,0-41.4-18.49-41.4-41.41v-96.61c0-57.14,23.18-108.89,60.58-146.43,37.55-37.41,89.16-60.59,146.44-60.59,114.28,0,207.02,92.75,207.02,207.02v96.61c0,22.92-18.49,41.41-41.4,41.41l-7.32,43.74c-4.69,28.03-20.56,53-44.16,68.88-12.7,8.55-27.89,20.28-45.13,30.36v22.64l137.05,43.33c54.8,17.25,96.68,59.2,115.02,111.24Z"/>
</svg>