<?xml version="1.0" encoding="UTF-8"?>
<svg id="Layer_1" data-name="Layer 1" xmlns="http://www.w3.org/2000/svg" viewBox="0 0 71.04 76.96">
  <defs>
    <style>
      .cls-1 {
        fill: #2c4395;
        stroke-width: 0px;
      }
    </style>
  </defs>
  <path class="cls-1" d="M47.76,40.7c5.99-3.98,9.96-10.78,9.96-18.5C57.72,9.96,47.76,0,35.52,0S13.32,9.96,13.32,22.2c0,7.72,3.96,14.52,9.96,18.5C9.71,45.7,0,58.72,0,74v2.96h71.04v-2.96c0-15.28-9.71-28.3-23.28-33.3ZM19.24,22.2c0-8.98,7.3-16.28,16.28-16.28s16.28,7.3,16.28,16.28-7.3,16.28-16.28,16.28-16.28-7.3-16.28-16.28ZM6.07,71.04c1.49-14.94,14.13-26.64,29.45-26.64s27.96,11.7,29.45,26.64H6.07Z"/>
</svg>