<svg version="1.2" xmlns="http://www.w3.org/2000/svg" viewBox="0 0 24 24" width="24" height="24"><style>.a{fill:#fff}</style><path fill-rule="evenodd" class="a" d="m9.7 11.5q-1.1-0.4-1.9-1.3-0.9-0.8-1.3-1.9-0.5-1.1-0.5-2.3c0-2.4 1.5-4.6 3.7-5.5 2.2-1 4.8-0.5 6.5 1.3 1.8 1.7 2.3 4.3 1.3 6.5-0.9 2.2-3.1 3.7-5.5 3.7q-1.2 0-2.3-0.5zm0.8-9.2q-0.8 0.3-1.3 0.9-0.6 0.5-0.9 1.3-0.3 0.7-0.3 1.5c0 1.6 1 3.1 2.5 3.7 1.5 0.6 3.2 0.3 4.3-0.9 1.2-1.1 1.5-2.8 0.9-4.3-0.6-1.5-2.1-2.5-3.7-2.5q-0.8 0-1.5 0.3z"/><path class="a" d="m12 14c-1.2 0-2.4 0.2-3.4 0.7-1.1 0.4-2.1 1.1-3 1.9-0.8 0.9-1.5 1.9-1.9 3-0.5 1-0.7 2.2-0.7 3.4q0 0.4 0.3 0.7 0.3 0.3 0.7 0.3 0.4 0 0.7-0.3 0.3-0.3 0.3-0.7c0-1.9 0.7-3.6 2.1-4.9 1.3-1.4 3-2.1 4.9-2.1 1.9 0 3.6 0.7 4.9 2.1 1.4 1.3 2.1 3 2.1 4.9q0 0.4 0.3 0.7 0.3 0.3 0.7 0.3 0.4 0 0.7-0.3 0.3-0.3 0.3-0.7c0-1.2-0.2-2.4-0.7-3.4-0.4-1.1-1.1-2.1-1.9-3-0.9-0.8-1.9-1.5-3-1.9-1-0.5-2.2-0.7-3.4-0.7z"/></svg>